<?xml version="1.0" encoding="UTF-8" standalone="no"?>
<svg version="1.1" viewBox="0 0 512 512" xmlns="http://www.w3.org/2000/svg">
   <path d="m 260.5399,470.42659 c -4.02135,-0.95432 -3.1489,-0.30974 -21.07067,-15.5677 -7.62808,-6.49428 -15.05604,-12.61428 -16.50657,-13.6 -5.96915,-4.05637 -10.99819,-1.59992 -25.62933,12.51866 -11.6011,11.1947 -14.86311,13.42245 -19.65398,13.42245 -3.21393,0 -4.81647,-0.93489 -9.59929,-5.6 -7.90465,-7.71013 -9.46774,-13.80108 -6.86614,-26.75543 1.1534,-5.74317 3.05275,-8.28265 3.05275,-4.0816 0,4.96904 10.63447,21.5037 13.83036,21.5037 2.5227,0 10.45102,-8.78897 15.33125,-16.99552 2.83889,-4.77385 6.25572,-9.39661 7.59296,-10.2728 2.54678,-1.66872 16.45376,-3.6431 25.7584,-3.65692 l 5.4463,-0.009 8.71392,10.05087 c 10.44243,12.04459 19.90313,20.88394 22.3461,20.87847 4.76283,-0.0107 16.19484,-10.25084 19.4517,-17.42378 2.65849,-5.85505 2.58336,-12.43225 -0.21632,-18.94028 -2.67489,-6.21796 -2.00883,-7.68639 1.85088,-4.0806 3.54348,3.31037 4.77611,5.77166 8.83512,17.64192 5.26247,15.38966 4.33972,22.54971 -4.08381,31.68816 -6.77035,7.34495 -19.42362,11.45232 -28.58363,9.27849 z M 194.33677,450.4 c 3.41896,-3.6657 5.59544,-7.73333 4.13788,-7.73333 -2.01424,0 -8.60798,6.6212 -8.60798,8.64383 0,2.79032 1.25721,2.53424 4.4701,-0.9105 z m 53.94858,0.53333 c -1.99404,-3.03884 -10.15774,-8.88316 -11.09681,-7.94409 -1.05772,1.05773 8.63901,10.34409 10.80121,10.34409 1.69524,0 1.72293,-0.22482 0.2956,-2.4 z M 126.9157,380.84214 C 107.31517,378.34848 78.44202,367.98147 64.68291,358.49722 57.682774,353.67198 49.200607,344.01007 46.105658,337.33615 42.360905,329.261 42.184949,317.13801 45.683739,308.26667 54.281453,286.46678 89.69625,261.25801 137.2257,243.10576 c 8.99987,-3.43719 17.53973,-7.0202 18.97747,-7.96224 2.8636,-1.87631 3.49656,-4.26538 6.48495,-24.47685 3.20791,-21.69634 4.49567,-25.90712 9.43081,-30.83738 11.50977,-11.49841 44.92308,-23.09239 78.51976,-27.24533 13.00017,-1.60698 42.82138,-1.37523 62.52333,0.48587 25.24143,2.38439 26.74322,2.80983 35.99887,10.19803 4.70763,3.75781 8.2155,7.42516 8.61153,9.00306 0.72739,2.89813 4.89425,3.84538 4.89425,1.1126 0,-2.17764 -2.30113,-6.98352 -3.34382,-6.98352 -0.47744,0 -1.56898,-1.35543 -2.42567,-3.01207 -0.85668,-1.65663 -3.50901,-4.30345 -5.89405,-5.8818 -2.78582,-1.84356 -4.33646,-3.67166 -4.33646,-5.11234 0,-1.83898 0.43194,-2.10628 2.4,-1.48514 8.91583,2.81392 9.75157,1.97896 5.78408,-5.77869 -1.91731,-3.74893 -3.74617,-5.42578 -8.76995,-8.04101 -3.4911,-1.81737 -10.32602,-6.04585 -15.18867,-9.39663 -9.90554,-6.82573 -11.70715,-7.16496 -21.02546,-3.95899 -8.13931,2.80033 -9.49332,2.79029 -7.96836,-0.0591 2.18879,-4.08979 0.51992,-4.16468 -8.03164,-0.36045 -14.89957,6.62822 -23.25946,10.04902 -23.63657,9.67191 -0.2012,-0.20121 1.26101,-2.48528 3.24937,-5.07574 4.1292,-5.37959 5.75964,-9.50992 3.75403,-9.50992 -0.72064,0 -4.84242,2.65852 -9.15951,5.90783 -8.89733,6.69662 -16.781,11.1588 -19.71518,11.1588 -1.09458,0 -3.75182,-1.61447 -5.905,-3.5877 l -3.91487,-3.58771 4.47183,-2.95931 4.47182,-2.95931 -3.41519,-2.51966 c -3.96192,-2.92301 -7.34422,-3.15059 -13.6674,-0.91965 -7.13369,2.51692 -12.16063,2.08368 -16.22955,-1.39871 -1.92708,-1.64928 -6.30439,-4.34445 -9.72736,-5.98925 -6.53186,-3.13871 -10.46692,-7.78065 -9.55428,-11.27059 0.28193,-1.078102 3.72107,-5.48097 7.64252,-9.78415 3.92146,-4.30318 7.95251,-9.121531 8.95789,-10.707448 1.19435,-1.883997 3.14324,-3.130231 5.62246,-3.595337 2.08698,-0.391518 5.68673,-2.29277 7.99947,-4.225006 8.25055,-6.893141 24.53397,-10.817204 35.39425,-8.52949 3.52312,0.742146 4.39581,0.464654 7.72136,-2.455223 3.6979,-3.2468 3.80946,-3.270714 8.13645,-1.744065 2.41292,0.85133 11.992,5.151938 21.28684,9.556905 9.29485,4.404969 17.15401,8.009034 17.46483,8.009034 0.31082,0 0.27712,-1.44 -0.0749,-3.2 -0.47229,-2.36143 -0.2405,-3.2 0.8845,-3.2 2.26994,0 11.72135,6.129802 14.50408,9.406762 l 2.42857,2.859905 -0.69824,-4.533334 C 331.77245,75.624174 331.89185,73.6 332.42634,73.6 c 3.70301,0 9.44246,7.840223 19.60232,26.77724 3.58701,6.68585 7.9619,13.97017 9.72199,16.18738 1.76008,2.2172 3.95254,6.2972 4.87211,9.06667 0.91958,2.76946 2.39675,5.87175 3.28263,6.89399 0.88586,1.02223 1.9732,4.15202 2.41631,6.95508 0.4431,2.80306 1.48972,6.76669 2.32581,8.80806 l 1.52017,3.71158 5.66804,-17.06667 c 3.11742,-9.38666 6.56333,-18.34587 7.65758,-19.90935 1.09425,-1.56348 3.38616,-6.27457 5.09313,-10.4691 1.70698,-4.19452 4.70334,-10.311628 6.65858,-13.593566 C 405.78913,83.333867 415.16528,73.6 417.9683,73.6 c 2.42697,0 6.05632,4.556286 7.82179,9.819491 0.64827,1.932614 1.76891,4.233842 2.4903,5.113842 0.72141,0.88 1.62547,5.231802 2.00902,9.670669 0.59665,6.905048 0.36673,8.818118 -1.59192,13.245958 -2.64585,5.9814 -4.25856,22.95004 -2.18118,22.95004 2.31444,0 1.20247,4.37244 -2.51631,9.89451 -2.05333,3.04902 -3.73333,6.3186 -3.73333,7.26571 0,0.94713 -1.21903,4.01471 -2.70895,6.81687 -2.52044,4.74031 -2.58767,5.22883 -0.96618,7.02056 2.15833,2.38492 1.61045,5.23888 -3.38285,17.62207 -2.29194,5.68392 -3.60028,10.62265 -3.45988,13.06029 0.12419,2.156 -0.38295,5.05152 -1.12699,6.43451 -0.74404,1.38298 -0.94832,2.87003 -0.45397,3.30455 0.49435,0.43453 6.40648,2.07399 13.13806,3.64326 17.13982,3.99562 28.41967,9.64712 37.62742,18.85232 6.55035,6.54853 7.2,7.59303 7.2,11.57619 0,3.74344 -0.65724,5.02173 -4.53333,8.81691 -14.5142,14.21128 -59.49462,43.71391 -89.33333,58.5937 -36.90288,18.4025 -116.87666,49.86152 -163.84572,64.45142 -27.93788,8.67831 -30.67987,9.16757 -53.75428,9.59148 -11.44,0.21017 -23.92794,-0.0158 -27.75097,-0.50221 z M 345.03356,146.07977 c -1.01356,-1.63998 0.37477,-2.69811 1.74383,-1.32905 0.76606,0.76606 0.78446,1.36269 0.0559,1.81295 -0.59725,0.36912 -1.40714,0.15136 -1.79975,-0.4839 z m 26.57703,-22.81498 c -0.32401,-0.84437 -0.0835,-2.40437 0.53438,-3.46667 0.9547,-1.64128 1.12836,-1.41062 1.15593,1.53521 0.0342,3.65688 -0.70436,4.5008 -1.69031,1.93146 z m -3.46191,-10.5523 c -0.87489,-1.05419 -0.77972,-1.9488 0.3688,-3.46667 1.45592,-1.92411 1.55003,-1.83959 1.58193,1.42085 0.0377,3.84515 -0.22705,4.12273 -1.95073,2.04582 z" />
</svg>
